<mxfile host="65bd71144e">
    <diagram name="Page-1" id="j3Lkhe3-oCnv9PTDjED4">
        <mxGraphModel dx="1363" dy="563" grid="1" gridSize="10" guides="1" tooltips="1" connect="1" arrows="1" fold="1" page="1" pageScale="1" pageWidth="827" pageHeight="1169" math="0" shadow="0">
            <root>
                <mxCell id="0"/>
                <mxCell id="1" parent="0"/>
                <mxCell id="sGyTVUG288RihxVFPJjw-10" value="" style="rounded=0;whiteSpace=wrap;html=1;" parent="1" vertex="1">
                    <mxGeometry x="60" y="170" width="650" height="300" as="geometry"/>
                </mxCell>
                <mxCell id="sGyTVUG288RihxVFPJjw-14" value="" style="rounded=0;whiteSpace=wrap;html=1;dashed=1;dashPattern=12 12;" parent="1" vertex="1">
                    <mxGeometry x="320" y="214.5" width="370" height="205.5" as="geometry"/>
                </mxCell>
                <mxCell id="sGyTVUG288RihxVFPJjw-12" value="" style="rounded=0;whiteSpace=wrap;html=1;dashed=1;dashPattern=12 12;" parent="1" vertex="1">
                    <mxGeometry x="84.5" y="214.5" width="180" height="203" as="geometry"/>
                </mxCell>
                <mxCell id="sGyTVUG288RihxVFPJjw-1" value="" style="outlineConnect=0;dashed=0;verticalLabelPosition=bottom;verticalAlign=top;align=center;html=1;shape=mxgraph.aws3.application_load_balancer;fillColor=#F58534;gradientColor=none;" parent="1" vertex="1">
                    <mxGeometry x="140" y="280" width="69" height="72" as="geometry"/>
                </mxCell>
                <mxCell id="sGyTVUG288RihxVFPJjw-2" value="" style="sketch=0;points=[[0,0,0],[0.25,0,0],[0.5,0,0],[0.75,0,0],[1,0,0],[0,1,0],[0.25,1,0],[0.5,1,0],[0.75,1,0],[1,1,0],[0,0.25,0],[0,0.5,0],[0,0.75,0],[1,0.25,0],[1,0.5,0],[1,0.75,0]];outlineConnect=0;fontColor=#232F3E;fillColor=#ED7100;strokeColor=#ffffff;dashed=0;verticalLabelPosition=bottom;verticalAlign=top;align=center;html=1;fontSize=12;fontStyle=0;aspect=fixed;shape=mxgraph.aws4.resourceIcon;resIcon=mxgraph.aws4.ecs;" parent="1" vertex="1">
                    <mxGeometry x="355" y="277" width="78" height="78" as="geometry"/>
                </mxCell>
                <mxCell id="sGyTVUG288RihxVFPJjw-3" value="ALB" style="text;html=1;align=center;verticalAlign=middle;resizable=0;points=[];autosize=1;strokeColor=none;fillColor=none;" parent="1" vertex="1">
                    <mxGeometry x="149.5" y="355" width="50" height="30" as="geometry"/>
                </mxCell>
                <mxCell id="sGyTVUG288RihxVFPJjw-4" value="ECS (fargate)" style="text;html=1;align=center;verticalAlign=middle;resizable=0;points=[];autosize=1;strokeColor=none;fillColor=none;" parent="1" vertex="1">
                    <mxGeometry x="320" y="355" width="100" height="30" as="geometry"/>
                </mxCell>
                <mxCell id="sGyTVUG288RihxVFPJjw-5" value="" style="sketch=0;points=[[0,0,0],[0.25,0,0],[0.5,0,0],[0.75,0,0],[1,0,0],[0,1,0],[0.25,1,0],[0.5,1,0],[0.75,1,0],[1,1,0],[0,0.25,0],[0,0.5,0],[0,0.75,0],[1,0.25,0],[1,0.5,0],[1,0.75,0]];outlineConnect=0;fontColor=#232F3E;fillColor=#C925D1;strokeColor=#ffffff;dashed=0;verticalLabelPosition=bottom;verticalAlign=top;align=center;html=1;fontSize=12;fontStyle=0;aspect=fixed;shape=mxgraph.aws4.resourceIcon;resIcon=mxgraph.aws4.rds;" parent="1" vertex="1">
                    <mxGeometry x="560" y="277" width="78" height="78" as="geometry"/>
                </mxCell>
                <mxCell id="sGyTVUG288RihxVFPJjw-6" value="RDS (Serverless V2)" style="text;html=1;align=center;verticalAlign=middle;resizable=0;points=[];autosize=1;strokeColor=none;fillColor=none;" parent="1" vertex="1">
                    <mxGeometry x="534" y="355" width="130" height="30" as="geometry"/>
                </mxCell>
                <mxCell id="sGyTVUG288RihxVFPJjw-7" value="" style="endArrow=classic;html=1;rounded=0;exitX=1;exitY=0.5;exitDx=0;exitDy=0;exitPerimeter=0;entryX=0;entryY=0.5;entryDx=0;entryDy=0;entryPerimeter=0;" parent="1" source="sGyTVUG288RihxVFPJjw-1" target="sGyTVUG288RihxVFPJjw-2" edge="1">
                    <mxGeometry width="50" height="50" relative="1" as="geometry">
                        <mxPoint x="230" y="380" as="sourcePoint"/>
                        <mxPoint x="350" y="380" as="targetPoint"/>
                    </mxGeometry>
                </mxCell>
                <mxCell id="sGyTVUG288RihxVFPJjw-8" value="" style="endArrow=classic;html=1;rounded=0;" parent="1" source="sGyTVUG288RihxVFPJjw-2" target="sGyTVUG288RihxVFPJjw-5" edge="1">
                    <mxGeometry width="50" height="50" relative="1" as="geometry">
                        <mxPoint x="420" y="320" as="sourcePoint"/>
                        <mxPoint x="460" y="270" as="targetPoint"/>
                    </mxGeometry>
                </mxCell>
                <mxCell id="sGyTVUG288RihxVFPJjw-11" value="VPC" style="text;html=1;align=center;verticalAlign=middle;whiteSpace=wrap;rounded=0;fontStyle=1" parent="1" vertex="1">
                    <mxGeometry x="60" y="168" width="60" height="30" as="geometry"/>
                </mxCell>
                <mxCell id="sGyTVUG288RihxVFPJjw-13" value="public subnets" style="text;html=1;align=center;verticalAlign=middle;whiteSpace=wrap;rounded=0;fontStyle=1" parent="1" vertex="1">
                    <mxGeometry x="84.5" y="214.5" width="95.5" height="30" as="geometry"/>
                </mxCell>
                <mxCell id="sGyTVUG288RihxVFPJjw-15" value="private subnets" style="text;html=1;align=center;verticalAlign=middle;whiteSpace=wrap;rounded=0;fontStyle=1" parent="1" vertex="1">
                    <mxGeometry x="320" y="214.5" width="100" height="30" as="geometry"/>
                </mxCell>
                <mxCell id="sGyTVUG288RihxVFPJjw-16" value="" style="endArrow=classic;html=1;rounded=0;" parent="1" target="sGyTVUG288RihxVFPJjw-12" edge="1">
                    <mxGeometry width="50" height="50" relative="1" as="geometry">
                        <mxPoint y="320" as="sourcePoint"/>
                        <mxPoint x="50" y="270" as="targetPoint"/>
                    </mxGeometry>
                </mxCell>
                <mxCell id="sGyTVUG288RihxVFPJjw-17" value="" style="sketch=0;points=[[0,0,0],[0.25,0,0],[0.5,0,0],[0.75,0,0],[1,0,0],[0,1,0],[0.25,1,0],[0.5,1,0],[0.75,1,0],[1,1,0],[0,0.25,0],[0,0.5,0],[0,0.75,0],[1,0.25,0],[1,0.5,0],[1,0.75,0]];outlineConnect=0;fontColor=#232F3E;fillColor=#DD344C;strokeColor=#ffffff;dashed=0;verticalLabelPosition=bottom;verticalAlign=top;align=center;html=1;fontSize=12;fontStyle=0;aspect=fixed;shape=mxgraph.aws4.resourceIcon;resIcon=mxgraph.aws4.secrets_manager;" parent="1" vertex="1">
                    <mxGeometry x="760" y="277" width="78" height="78" as="geometry"/>
                </mxCell>
                <mxCell id="sGyTVUG288RihxVFPJjw-19" value="Secrets Manager" style="text;html=1;align=center;verticalAlign=middle;resizable=0;points=[];autosize=1;strokeColor=none;fillColor=none;" parent="1" vertex="1">
                    <mxGeometry x="750" y="360" width="110" height="30" as="geometry"/>
                </mxCell>
                <mxCell id="sGyTVUG288RihxVFPJjw-20" value="" style="endArrow=classic;html=1;rounded=0;" parent="1" source="sGyTVUG288RihxVFPJjw-5" target="sGyTVUG288RihxVFPJjw-17" edge="1">
                    <mxGeometry width="50" height="50" relative="1" as="geometry">
                        <mxPoint x="630" y="320" as="sourcePoint"/>
                        <mxPoint x="680" y="270" as="targetPoint"/>
                    </mxGeometry>
                </mxCell>
                <mxCell id="sGyTVUG288RihxVFPJjw-21" value="" style="outlineConnect=0;dashed=0;verticalLabelPosition=bottom;verticalAlign=top;align=center;html=1;shape=mxgraph.aws3.ecr;fillColor=#F58534;gradientColor=none;" parent="1" vertex="1">
                    <mxGeometry x="359.5" y="549" width="69" height="72" as="geometry"/>
                </mxCell>
                <mxCell id="sGyTVUG288RihxVFPJjw-22" value="ECR" style="text;html=1;align=center;verticalAlign=middle;resizable=0;points=[];autosize=1;strokeColor=none;fillColor=none;" parent="1" vertex="1">
                    <mxGeometry x="369" y="621" width="50" height="30" as="geometry"/>
                </mxCell>
                <mxCell id="sGyTVUG288RihxVFPJjw-23" value="" style="endArrow=classic;html=1;rounded=0;exitX=0.74;exitY=-0.1;exitDx=0;exitDy=0;exitPerimeter=0;entryX=0.5;entryY=0;entryDx=0;entryDy=0;entryPerimeter=0;" parent="1" source="sGyTVUG288RihxVFPJjw-4" target="sGyTVUG288RihxVFPJjw-21" edge="1">
                    <mxGeometry width="50" height="50" relative="1" as="geometry">
                        <mxPoint x="430" y="560" as="sourcePoint"/>
                        <mxPoint x="480" y="510" as="targetPoint"/>
                    </mxGeometry>
                </mxCell>
            </root>
        </mxGraphModel>
    </diagram>
</mxfile>